<svg id="visual" viewBox="0 0 960 540" width="960" height="540" xmlns="http://www.w3.org/2000/svg" xmlns:xlink="http://www.w3.org/1999/xlink" version="1.1"><rect x="0" y="0" width="960" height="540" fill="#362665"></rect><defs><linearGradient id="grad1_0" x1="43.8%" y1="0%" x2="100%" y2="100%"><stop offset="14.444444444444446%" stop-color="#362665" stop-opacity="1"></stop><stop offset="85.55555555555554%" stop-color="#362665" stop-opacity="1"></stop></linearGradient></defs><defs><linearGradient id="grad2_0" x1="0%" y1="0%" x2="56.3%" y2="100%"><stop offset="14.444444444444446%" stop-color="#362665" stop-opacity="1"></stop><stop offset="85.55555555555554%" stop-color="#362665" stop-opacity="1"></stop></linearGradient></defs><g transform="translate(960, 0)"><path d="M0 486C-62.5 471.1 -125 456.3 -177.6 428.7C-230.1 401.1 -272.7 360.7 -320.3 320.3C-367.9 279.9 -420.6 239.4 -449 186C-477.5 132.6 -481.7 66.3 -486 0L0 0Z" fill="#2b1c57"></path></g><g transform="translate(0, 540)"><path d="M0 -486C57 -457.8 113.9 -429.6 167.2 -403.7C220.5 -377.9 270.1 -354.5 320.3 -320.3C370.5 -286.1 421.3 -241.2 449 -186C476.7 -130.8 481.4 -65.4 486 0L0 0Z" fill="#2b1c57"></path></g></svg>