<svg id="visual" viewBox="0 0 900 600" width="900" height="600" xmlns="http://www.w3.org/2000/svg" xmlns:xlink="http://www.w3.org/1999/xlink" version="1.1"><rect x="0" y="0" width="900" height="600" fill="#2b1c57"></rect><defs><linearGradient id="grad1_0" x1="33.3%" y1="0%" x2="100%" y2="100%"><stop offset="20%" stop-color="#2b1c57" stop-opacity="1"></stop><stop offset="80%" stop-color="#2b1c57" stop-opacity="1"></stop></linearGradient></defs><defs><linearGradient id="grad2_0" x1="0%" y1="0%" x2="66.7%" y2="100%"><stop offset="20%" stop-color="#2b1c57" stop-opacity="1"></stop><stop offset="80%" stop-color="#2b1c57" stop-opacity="1"></stop></linearGradient></defs><g transform="translate(900, 0)"><path d="M0 486.7C-33.4 410 -66.9 333.2 -133.2 321.5C-199.5 309.8 -298.7 363.2 -344.2 344.2C-389.7 325.1 -381.5 233.6 -396.3 164.2C-411.2 94.7 -449 47.4 -486.7 0L0 0Z" fill="#362665"></path></g><g transform="translate(0, 600)"><path d="M0 -486.7C61.5 -479.5 123 -472.3 186.3 -449.7C249.6 -427.1 314.6 -389 331.6 -331.6C348.6 -274.2 317.5 -197.4 335.4 -138.9C353.2 -80.4 420 -40.2 486.7 0L0 0Z" fill="#362665"></path></g></svg>